<svg xmlns="http://www.w3.org/2000/svg" width="520" height="180" viewBox="0 0 520 180">

  <!-- grid dots -->
  <g opacity="0.25">
    <circle cx="32" cy="148" r="1.3" fill="#94a3b8"/>
    <circle cx="58" cy="148" r="1.3" fill="#94a3b8"/>
    <circle cx="84" cy="148" r="1.3" fill="#94a3b8"/>
    <circle cx="110" cy="148" r="1.3" fill="#94a3b8"/>
    <circle cx="136" cy="148" r="1.3" fill="#94a3b8"/>
    <circle cx="162" cy="148" r="1.3" fill="#94a3b8"/>
    <circle cx="32" cy="122" r="1.3" fill="#94a3b8"/>
    <circle cx="58" cy="122" r="1.3" fill="#94a3b8"/>
    <circle cx="84" cy="122" r="1.3" fill="#94a3b8"/>
    <circle cx="110" cy="122" r="1.3" fill="#94a3b8"/>
    <circle cx="136" cy="122" r="1.3" fill="#94a3b8"/>
    <circle cx="162" cy="122" r="1.3" fill="#94a3b8"/>
    <circle cx="32" cy="96" r="1.3" fill="#94a3b8"/>
    <circle cx="58" cy="96" r="1.3" fill="#94a3b8"/>
    <circle cx="84" cy="96" r="1.3" fill="#94a3b8"/>
    <circle cx="110" cy="96" r="1.3" fill="#94a3b8"/>
    <circle cx="136" cy="96" r="1.3" fill="#94a3b8"/>
    <circle cx="162" cy="96" r="1.3" fill="#94a3b8"/>
    <circle cx="32" cy="70" r="1.3" fill="#94a3b8"/>
    <circle cx="58" cy="70" r="1.3" fill="#94a3b8"/>
    <circle cx="84" cy="70" r="1.3" fill="#94a3b8"/>
    <circle cx="110" cy="70" r="1.3" fill="#94a3b8"/>
    <circle cx="136" cy="70" r="1.3" fill="#94a3b8"/>
    <circle cx="162" cy="70" r="1.3" fill="#94a3b8"/>
    <circle cx="32" cy="44" r="1.3" fill="#94a3b8"/>
    <circle cx="58" cy="44" r="1.3" fill="#94a3b8"/>
    <circle cx="84" cy="44" r="1.3" fill="#94a3b8"/>
    <circle cx="110" cy="44" r="1.3" fill="#94a3b8"/>
    <circle cx="136" cy="44" r="1.3" fill="#94a3b8"/>
    <circle cx="162" cy="44" r="1.3" fill="#94a3b8"/>
  </g>

  <!-- baseline axis -->
  <line x1="22" y1="150" x2="174" y2="150" stroke="#e2e8f0" stroke-width="1.2" stroke-linecap="round"/>

  <!-- DOLPHIN ARC = LINE CHART -->
  <path d="M32 144 C50 124 68 72 98 46 C118 28 140 40 156 66"
        stroke="#0ea5e9" stroke-width="5" fill="none"
        stroke-linecap="round" stroke-linejoin="round"/>

  <!-- dorsal fin at peak -->
  <path d="M96 46 C100 26 112 20 115 36"
        stroke="#0ea5e9" stroke-width="3.5" fill="none"
        stroke-linecap="round" stroke-linejoin="round"/>

  <!-- tail fluke — upper lobe -->
  <path d="M32 144 C24 134 14 130 12 138 C14 146 24 145 32 144 Z"
        fill="#0ea5e9"/>
  <!-- tail fluke — lower lobe -->
  <path d="M32 144 C24 152 18 160 22 164 C28 158 32 150 32 144 Z"
        fill="#0ea5e9" opacity="0.65"/>

  <!-- snout -->
  <path d="M156 66 C162 54 172 52 173 62 C170 72 157 73 156 66 Z"
        fill="#0ea5e9"/>

  <!-- eye -->
  <circle cx="151" cy="58" r="3.5" fill="#0c1f3f"/>
  <circle cx="152" cy="57" r="1.2" fill="white"/>

  <!-- AI data point — peak of the leap -->
  <circle cx="98" cy="46" r="8" fill="white" stroke="#0ea5e9" stroke-width="3"/>
  <circle cx="98" cy="46" r="3" fill="#0ea5e9"/>

  <!-- WORDMARK -->
  <text x="196" y="100"
        font-family="-apple-system,BlinkMacSystemFont,'Segoe UI',system-ui,sans-serif"
        font-size="54" font-weight="800"
        fill="#0c1f3f"
        letter-spacing="-2.5">Dolphin</text>

  <text x="458" y="100"
        font-family="-apple-system,BlinkMacSystemFont,'Segoe UI',system-ui,sans-serif"
        font-size="54" font-weight="300"
        fill="#0ea5e9"
        letter-spacing="-1">AI</text>

  <!-- tagline -->
  <text x="197" y="126"
        font-family="-apple-system,BlinkMacSystemFont,'Segoe UI',system-ui,sans-serif"
        font-size="11.5" fill="#94a3b8" letter-spacing="2.8">SPEND INTELLIGENCE PLATFORM</text>

</svg>
